<svg xmlns="http://www.w3.org/2000/svg" viewBox="0 0 1919.99 390"><defs><style>.cls-1{isolation:isolate;}.cls-2{fill:#262626;}</style></defs><title>футер</title><g id="bg_clouds" class="cls-1"><path class="cls-2" d="M2046.23,182.82a783.94,783.94,0,0,0-153.07,14.94c-52.78,10.49-137.28,42.95-179.81,60a61.61,61.61,0,0,1-50.83-2.44c-42.39-21.62-88.18-39.86-132.88-56.17a1050.9,1050.9,0,0,0-360-63.13c-129.42,0-253.28,23.27-367.34,65.86-82.12,30.67-106.92,46.83-114.93,51a39.32,39.32,0,0,1-34.61.79,773.82,773.82,0,0,0-148.23-50.71A790.68,790.68,0,0,0,209,191.73V526H2129V187.2A768.35,768.35,0,0,0,2046.23,182.82ZM418.63,337.24l-3,4.49a4.18,4.18,0,0,0-.42,3.88l2,5a4.2,4.2,0,0,1-5.07,5.57l-5.22-1.49a4.22,4.22,0,0,0-3.84.8L398.85,359a4.21,4.21,0,0,1-6.89-3.08l-0.2-5.4a4.19,4.19,0,0,0-1.95-3.39l-4.58-2.9a4.19,4.19,0,0,1,.82-7.48l5.1-1.85a4.2,4.2,0,0,0,2.63-2.89l1.36-5.23a4.22,4.22,0,0,1,7.39-1.54l3.35,4.26a4.22,4.22,0,0,0,3.58,1.6l5.42-.33A4.2,4.2,0,0,1,418.63,337.24Zm460.25-9.55-6.2,5.31a6.16,6.16,0,0,0-2.24,5.46l0.87,8.12a6.35,6.35,0,0,1-9.66,6l-7-4.24a6.19,6.19,0,0,0-5.91-.43l-7.5,3.3a6.31,6.31,0,0,1-8.72-7.25l1.87-8a6.06,6.06,0,0,0-1.44-5.67l-5.41-6.11a6.33,6.33,0,0,1,4.18-10.56l8.22-.57a6.41,6.41,0,0,0,5-3.16l4.11-7.11a6.4,6.4,0,0,1,11.39.79l3.1,7.54a6.37,6.37,0,0,0,4.61,3.81l8,1.72A6.3,6.3,0,0,1,878.88,327.69Zm444.71-95.91-3.24,1.38a2.73,2.73,0,0,0-1.61,2l-0.7,3.44a2.74,2.74,0,0,1-4.74,1.26l-2.32-2.64a2.74,2.74,0,0,0-2.37-.91l-3.5.41a2.73,2.73,0,0,1-2.66-4.1l1.81-3a2.71,2.71,0,0,0,.14-2.53l-1.47-3.19A2.73,2.73,0,0,1,1306,220l3.44,0.78a2.74,2.74,0,0,0,2.46-.65l2.59-2.38a2.74,2.74,0,0,1,4.58,1.76l0.32,3.5a2.73,2.73,0,0,0,1.38,2.13l3.07,1.72A2.72,2.72,0,0,1,1323.59,231.77Zm236.45,243-5.57.72a4.36,4.36,0,0,0-3.32,2.33l-2.56,5a4.37,4.37,0,0,1-7.82-.12l-2.41-5.06a4.36,4.36,0,0,0-3.25-2.43l-5.55-.89a4.34,4.34,0,0,1-2.3-7.45l4.09-3.85a4.34,4.34,0,0,0,1.31-3.83l-0.87-5.53a4.36,4.36,0,0,1,6.4-4.48l4.93,2.68a4.38,4.38,0,0,0,4.06.06l5-2.53a4.36,4.36,0,0,1,6.26,4.68l-1,5.5a4.34,4.34,0,0,0,1.19,3.87l4,4A4.34,4.34,0,0,1,1560,474.79ZM1964.69,364.6l-9.66,8.19a9.74,9.74,0,0,0-3.46,8.4l1.23,12.57a9.81,9.81,0,0,1-14.92,9.26l-10.74-6.68a9.85,9.85,0,0,0-9.16-.65l-11.54,5a9.81,9.81,0,0,1-13.48-11.28l3-12.28a9.92,9.92,0,0,0-2.24-8.83l-8.36-9.41A9.75,9.75,0,0,1,1892,342.7l12.62-.93a9.78,9.78,0,0,0,7.79-4.81l6.42-10.85a9.79,9.79,0,0,1,17.52,1.22l4.76,11.71a10,10,0,0,0,7,5.89l12.4,2.66A9.77,9.77,0,0,1,1964.69,364.6Z" transform="translate(-209.01 -135.99)"/></g></svg>