<?xml version="1.0" encoding="utf-8"?>
<!-- Generator: Adobe Illustrator 19.0.0, SVG Export Plug-In . SVG Version: 6.00 Build 0)  -->
<svg version="1.1" id="Слой_1" xmlns="http://www.w3.org/2000/svg" xmlns:xlink="http://www.w3.org/1999/xlink" x="0px" y="0px"
	 viewBox="0 0 407.9 429.9" style="enable-background:new 0 0 407.9 429.9;" xml:space="preserve">
<style type="text/css">
	.st0{fill:#E29187;}
	.st1{fill:#202A2B;}
</style>
<g id="XMLID_29_">
	<path id="XMLID_9_" class="st0" d="M14,177.9l-11.6-2.8c5.3-22.6,14.5-43.9,27.2-63.5c12.4-19.2,27.9-36.2,46.1-50.5
		c18.3-14.4,38.7-25.7,60.7-33.4c22.7-8,46.6-12.1,71-12.1v12c-23,0-45.6,3.8-67,11.4c-20.7,7.3-40,17.9-57.2,31.5
		C65.9,83.9,51.3,100,39.5,118.1C27.6,136.6,19,156.7,14,177.9z"/>
</g>
<g id="XMLID_16_">
	<path id="XMLID_59_" class="st1" d="M407,207.5c-9.4-1.8-19.2-2.8-29.2-2.8c-10.4,0-20.5,1-30.3,3c-10.5,2.1-27.2,8.5-35.7,11.9
		c-3.3,1.3-6.9,1.1-10.1-0.5c-8.4-4.3-17.5-7.9-26.4-11.2c-22.2-8.1-46.3-12.6-71.4-12.6c-25.7,0-50.2,4.6-72.9,13.1
		c-7.8,2.9-15.4,6.3-22.8,10.2c-2.1,1.1-4.7,1.2-6.9,0.2c-9.3-4.3-19.2-7.7-29.4-10.1c-11.3-2.6-23-4-35.1-4
		c-12.5,0-24.6,1.5-36.2,4.3C0.2,214.6,0,220.3,0,226c0,112.6,91.3,203.9,203.9,203.9S407.9,338.6,407.9,226
		C407.9,219.8,407.6,213.6,407,207.5z M157.4,250.3l-1.7,1.4c-0.4,0.4-0.7,0.9-0.6,1.5l0.2,2.2c0.1,1.4-1.4,2.4-2.6,1.7l-1.9-1.2
		c-0.5-0.3-1.1-0.3-1.6-0.1l-2,0.9c-1.3,0.6-2.7-0.6-2.4-2l0.5-2.2c0.1-0.6,0-1.1-0.4-1.6l-1.5-1.7c-1-1.1-0.3-2.8,1.2-2.9l2.2-0.2
		c0.6,0,1.1-0.4,1.4-0.9l1.1-1.9c0.7-1.2,2.6-1.1,3.1,0.2l0.9,2.1c0.2,0.5,0.7,0.9,1.2,1l2.2,0.5
		C158.1,247.5,158.5,249.3,157.4,250.3z M300.8,348.6l-1.2,1.6c-0.3,0.4-0.4,0.9-0.2,1.4l0.6,1.9c0.4,1.2-0.8,2.4-2,2l-1.9-0.7
		c-0.5-0.2-1-0.1-1.5,0.2l-1.6,1.2c-1.1,0.8-2.5,0-2.5-1.3l0.1-2c0-0.5-0.2-1-0.6-1.3l-1.6-1.2c-1.1-0.8-0.8-2.4,0.5-2.8l1.9-0.6
		c0.5-0.1,0.9-0.5,1-1l0.6-1.9c0.4-1.2,2.1-1.5,2.8-0.4l1.1,1.7c0.3,0.4,0.8,0.7,1.3,0.7h2C300.9,346.1,301.6,347.5,300.8,348.6z
		 M361.7,262.2l-1.9,1.6c-0.5,0.4-0.7,1-0.7,1.7l0.2,2.5c0.2,1.6-1.6,2.7-3,1.8l-2.1-1.3c-0.5-0.3-1.2-0.4-1.8-0.1l-2.3,1
		c-1.5,0.6-3.1-0.7-2.7-2.3l0.6-2.4c0.2-0.6,0-1.3-0.4-1.8l-1.7-1.9c-1.1-1.2-0.3-3.1,1.3-3.2l2.5-0.2c0.6,0,1.2-0.4,1.5-1l1.3-2.2
		c0.8-1.4,2.9-1.2,3.5,0.3l0.9,2.3c0.2,0.6,0.8,1,1.4,1.2l2.5,0.5C362.4,259.2,362.9,261.2,361.7,262.2z"/>
</g>
<g id="XMLID_14_">
	<path id="XMLID_4_" class="st0" d="M167.9,390.7c-15.8,0-31-9.1-38.4-20.3l11.5-7.7c5.1,7.7,16.2,14.1,27,14.1c2.4,0,4.8-0.3,7.1-1
		c14.1-4.3,21.9-21.6,21.9-48.6l0-131.7l13.8,0l0,131.7c0,17.5-3,31.8-8.8,42.4c-5.4,9.8-13.3,16.5-22.9,19.4
		C175.4,390.1,171.6,390.7,167.9,390.7z"/>
</g>
<rect id="XMLID_3_" x="197.7" y="0" class="st0" width="12.7" height="27.7"/>
<path id="XMLID_2_" class="st0" d="M273.4,261.9l0.3,3.2c0.1,0.8,0.6,1.6,1.3,2l2.8,1.6c1.8,1,1.7,3.7-0.2,4.5l-3,1.3
	c-0.8,0.3-1.3,1-1.5,1.8l-0.6,3.2c-0.4,2-3,2.7-4.4,1.2l-2.1-2.4c-0.5-0.6-1.4-0.9-2.2-0.8l-3.2,0.4c-2.1,0.2-3.5-2-2.5-3.8l1.7-2.8
	c0.4-0.7,0.5-1.6,0.1-2.3l-1.4-3c-0.9-1.9,0.8-4,2.9-3.5l3.2,0.7c0.8,0.2,1.7,0,2.3-0.6l2.4-2.2
	C270.7,258.9,273.2,259.8,273.4,261.9z"/>
<path id="XMLID_1_" class="st0" d="M89.3,290.6l2.3,2.9c0.6,0.7,1.5,1.2,2.5,1.1l3.7-0.2c2.4-0.1,3.9,2.5,2.6,4.5l-2.1,3.1
	c-0.5,0.8-0.6,1.8-0.3,2.7l1.4,3.5c0.9,2.2-1.2,4.5-3.5,3.8l-3.6-1c-0.9-0.3-1.9-0.1-2.6,0.5l-2.9,2.4c-1.8,1.5-4.6,0.3-4.7-2.1
	l-0.1-3.7c0-1-0.5-1.8-1.3-2.3l-3.1-2c-2-1.3-1.7-4.3,0.6-5.2l3.5-1.3c0.9-0.3,1.6-1.1,1.8-2l0.9-3.6
	C84.8,289.3,87.8,288.7,89.3,290.6z"/>
</svg>
