<?xml version="1.0" encoding="utf-8"?>
<!-- Generator: Adobe Illustrator 19.0.0, SVG Export Plug-In . SVG Version: 6.00 Build 0)  -->
<svg version="1.1" id="Слой_1" xmlns="http://www.w3.org/2000/svg" xmlns:xlink="http://www.w3.org/1999/xlink" x="0px" y="0px"
	 viewBox="0 0 416.1 55.5" style="enable-background:new 0 0 416.1 55.5;" xml:space="preserve">
<style type="text/css">
	.st0{fill:#E29187;}
	.st1{fill:#1B2526;}
</style>
<g id="XMLID_42_">
	<path id="XMLID_14_" class="st0" d="M14.4,8.2l-2.3-5.8c5.8-2.3,12.4-2.3,18.1,0l-2.3,5.8C23.6,6.5,18.7,6.5,14.4,8.2z"/>
</g>
<g id="XMLID_40_">
	<path id="XMLID_13_" class="st0" d="M309.6,8.6l-2.3-5.8c5.8-2.3,12.4-2.3,18.1,0l-2.3,5.8C318.9,6.9,314,6.9,309.6,8.6z"/>
</g>
<g id="XMLID_17_">
	<g id="XMLID_36_">
		<path id="XMLID_37_" class="st1" d="M35.3,20.3c-4-4-8.9-6-14.6-6c-3.7,0-7.2,0.9-10.4,2.8c-3.2,1.8-5.8,4.4-7.6,7.5
			C0.9,27.6,0,31.1,0,34.8c0,5.6,2,10.5,5.9,14.5c3.9,4.1,9,6.1,14.9,6.1c5.7,0,10.6-2,14.6-6c4-4,6-8.8,6-14.5
			C41.4,29.2,39.4,24.3,35.3,20.3z M20.8,46.4c-2.8,0-5.1-0.8-7.3-2.5c-2.7-2.2-4.1-5.1-4.1-8.9c0-3.4,1.1-6.1,3.2-8.3
			c2.2-2.2,4.8-3.2,8-3.2c3.2,0,5.8,1.1,8,3.3c2.2,2.2,3.3,4.9,3.3,8.2c0,3.3-1.1,5.9-3.3,8.2C26.5,45.3,23.9,46.4,20.8,46.4z"/>
	</g>
	<g id="XMLID_34_">
		<path id="XMLID_10_" class="st1" d="M87.4,54.5h-8.3c-0.3,0-0.7-0.2-0.8-0.5l-9-23.5c-0.2-0.4-0.8-0.4-1,0L59.2,54
			c-0.1,0.3-0.4,0.5-0.8,0.5h-8.3c-0.6,0-1-0.6-0.8-1.1l14.8-37.7c0.1-0.3,0.4-0.5,0.8-0.5h7.7c0.3,0,0.6,0.2,0.8,0.5l14.7,37.7
			C88.4,54,88,54.5,87.4,54.5z"/>
	</g>
	<g id="XMLID_32_">
		<path id="XMLID_9_" class="st1" d="M107.4,25.1v5.1c0,0.4,0.4,0.8,0.8,0.8H120c0.5,0,0.8,0.4,0.8,0.8V38c0,0.4-0.4,0.8-0.8,0.8
			h-11.8c-0.5,0-0.8,0.4-0.8,0.8v4.9c0,0.4,0.4,0.8,0.8,0.8H120c0.5,0,0.8,0.4,0.8,0.8v7.6c0,0.4-0.4,0.8-0.8,0.8H98.8
			c-0.5,0-0.8-0.4-0.8-0.8V16c0-0.4,0.4-0.8,0.8-0.8H120c0.5,0,0.8,0.4,0.8,0.8v7.5c0,0.4-0.4,0.8-0.8,0.8h-11.8
			C107.8,24.3,107.4,24.7,107.4,25.1z"/>
	</g>
	<g id="XMLID_30_">
		<path id="XMLID_8_" class="st1" d="M205.1,54.5h-8.3c-0.3,0-0.7-0.2-0.8-0.5l-9-23.5c-0.2-0.4-0.8-0.4-1,0L176.9,54
			c-0.1,0.3-0.4,0.5-0.8,0.5h-8.3c-0.6,0-1-0.6-0.8-1.1l14.8-37.7c0.1-0.3,0.4-0.5,0.8-0.5h7.7c0.3,0,0.6,0.2,0.8,0.5l14.7,37.7
			C206.1,54,205.7,54.5,205.1,54.5z"/>
	</g>
	<g id="XMLID_28_">
		<path id="XMLID_7_" class="st1" d="M246,15.2c0.6,0,1,0.6,0.8,1.1l-10.2,27c-1.8,4.8-3.8,7.9-6,9.6c-2.2,1.7-4.6,2.5-7.2,2.5
			c-4.1,0-7.8-1.9-11.2-5.8l-0.2-0.2c-0.3-0.3-0.3-0.8,0-1.1l5.2-5.1c0.3-0.3,0.9-0.3,1.2,0l0.2,0.3c1.3,1.5,3.8,3.7,6,2.5
			c0.7-0.4,1.1-0.9,1.3-1.6c0.1-0.7-0.5-2-0.9-2.8c-0.4-0.8-0.8-1.7-1.2-2.5c-1.1-2.3-2.2-4.6-3.4-6.9c-1.2-2.5-2.5-5.1-3.7-7.6
			c-1-2.1-2.1-4.2-3.1-6.4c-0.5-1-1-2-1.5-3c0,0,0,0,0,0h10.1c0.3,0,0.6,0.2,0.8,0.5l7.2,15.7c0.2,0.5,0.9,0.4,1.1,0l5.9-15.6
			c0.1-0.3,0.4-0.5,0.8-0.5H246z"/>
	</g>
	<g id="XMLID_26_">
		<path id="XMLID_6_" class="st1" d="M286.5,54.5H277c-0.2,0-0.5-0.1-0.6-0.3l-8.2-9.5c-0.5-0.6-1.5-1.4-1.5,0.5v8.5
			c0,0.4-0.4,0.8-0.8,0.8H258c-0.5,0-0.8-0.4-0.8-0.8V16c0-0.4,0.4-0.8,0.8-0.8h7.9c0.5,0,0.8,0.4,0.8,0.8v9.9c0,1.9,1,1.1,1.5,0.5
			l8.1-10.8c0.2-0.2,0.4-0.3,0.7-0.3h9.5c0.7,0,1.1,0.8,0.7,1.3l-13.5,18.2c-0.2,0.3-0.2,0.7,0,1l13.6,17.6
			C287.5,53.8,287.1,54.5,286.5,54.5z"/>
	</g>
	<g id="XMLID_22_">
		<path id="XMLID_23_" class="st1" d="M331,20.3c-4-4-8.9-6-14.6-6c-3.7,0-7.2,0.9-10.4,2.8c-3.2,1.8-5.8,4.4-7.6,7.5
			c-1.8,3.1-2.8,6.6-2.8,10.4c0,5.6,2,10.5,5.9,14.5c3.9,4.1,9,6.1,14.9,6.1c5.7,0,10.6-2,14.6-6c4-4,6-8.8,6-14.5
			C337.1,29.2,335,24.3,331,20.3z M316.5,46.4c-2.8,0-5.1-0.8-7.3-2.5c-2.7-2.2-4.1-5.1-4.1-8.9c0-3.4,1.1-6.1,3.2-8.3
			c2.2-2.2,4.8-3.2,8-3.2c3.2,0,5.8,1.1,8,3.3c2.2,2.2,3.3,4.9,3.3,8.2c0,3.3-1.1,5.9-3.3,8.2C322.2,45.3,319.6,46.4,316.5,46.4z"/>
	</g>
	<g id="XMLID_20_">
		<path id="XMLID_3_" class="st1" d="M379.1,16v37.7c0,0.4-0.4,0.8-0.8,0.8h-7.8c-0.5,0-0.8-0.4-0.8-0.8V37.2c0-1.9-0.9-1.1-1.4-0.4
			l-10.7,17.3c-0.1,0.2-0.4,0.4-0.7,0.4h-6.7c-0.5,0-0.8-0.4-0.8-0.8V16c0-0.4,0.4-0.8,0.8-0.8h7.8c0.5,0,0.8,0.4,0.8,0.8v17.1
			c0,1.6,0.9,1.1,1.4,0.4L371,15.6c0.1-0.2,0.4-0.4,0.7-0.4h6.5C378.7,15.2,379.1,15.5,379.1,16z"/>
	</g>
	<g id="XMLID_18_">
		<path id="XMLID_2_" class="st1" d="M402.7,25.1v5.1c0,0.4,0.4,0.8,0.8,0.8h11.8c0.5,0,0.8,0.4,0.8,0.8v5.9c0,0.4-0.4,0.8-0.8,0.8
			h-11.8c-0.5,0-0.8,0.4-0.8,0.8v5.1c0,0.4,0.4,0.8,0.8,0.8h11.8c0.5,0,0.8,0.4,0.8,0.8v7.6c0,0.4-0.4,0.8-0.8,0.8h-21.2
			c-0.5,0-0.8-0.4-0.8-0.8V16c0-0.4,0.4-0.8,0.8-0.8h21.2c0.5,0,0.8,0.4,0.8,0.8v7.5c0,0.4-0.4,0.8-0.8,0.8h-11.8
			C403.1,24.3,402.7,24.7,402.7,25.1z"/>
	</g>
</g>
<circle id="XMLID_1_" class="st1" cx="364.2" cy="4.8" r="4.8"/>
</svg>
